# xmcd
#
# Track frame offsets:
#	150
#	14163
#	24944
#	38168
#	49211
#	65192
#	78131
#	91838
#	103832
#	114506
#	128322
#	142156
#	152240
#	165428
#	180728
#	194979
#	210586
#	225643
#	238717
#	254935
#	267526
#	281509
#	294605
#	310469
#	322128
#
# Disc length: 4494 seconds
#
# Revision: 1
# Processed by: cddbd v1.5.1PL0 Copyright (c) Steve Scherf et al.
# Submitted via: EasyCDDAExtractor 7.1.0.1
#
DISCID=80118c19
DTITLE=Tom T. Hall - Tom T. Hall - Storyteller, Poet, Philosopher Disc 2
DYEAR=1995
DGENRE=Country
TTITLE0=Shoeshine Man [Album Version]
TTITLE1=Flat-Footin' It [Single Version]
TTITLE2=Old Five And Dimers Like Me [Album Version]
TTITLE3=Willy The Wandering Gypsy And Me [Album Version]
TTITLE4=More About John Henry [Single Version]
TTITLE5=Give Her My Best [1995 Box Set Version]
TTITLE6=Pamela Brown [Album Version]
TTITLE7=I Flew Over Our House Last Night [Single Version]
TTITLE8=Molly And Tenbrooks [1976 Album Version]
TTITLE9=The Monkey That Became President [Single Version]
TTITLE10=That's How I Got To Memphis [Album Version]
TTITLE11=Mama's Got The Catfish Blues [Album Version]
TTITLE12=I Like Beer [Single Version]
TTITLE13=Day Drinkin' [Single Version]
TTITLE14=That Song Is Driving Me Crazy [Single Version]
TTITLE15=Salute To A Switchblade [Single Version]
TTITLE16=Margie's At The Lincoln Park Inn [Album Version]
TTITLE17=Subdivision Blues [Album Version]
TTITLE18=America The Ugly [Album Version]
TTITLE19=Hang Them All (Get The Guilty) [Album Version]
TTITLE20=Levi Jones [1995 Box Set Version]
TTITLE21=Faster Horses (The Cowboy And The Poet) [Single Version]
TTITLE22=I'm Forty Now [Album Version]
TTITLE23=Deal [Single Version]
TTITLE24=Me And Jesus [Single Version]
EXTD=
EXTT0=
EXTT1=
EXTT2=
EXTT3=
EXTT4=
EXTT5=
EXTT6=
EXTT7=
EXTT8=
EXTT9=
EXTT10=
EXTT11=
EXTT12=
EXTT13=
EXTT14=
EXTT15=
EXTT16=
EXTT17=
EXTT18=
EXTT19=
EXTT20=
EXTT21=
EXTT22=
EXTT23=
EXTT24=
PLAYORDER=
